<svg width="1280" height="900" viewBox="0 0 1280 900" fill="none" xmlns="http://www.w3.org/2000/svg">
  <defs>
    <linearGradient id="hero" x1="0" y1="0" x2="1280" y2="0" gradientUnits="userSpaceOnUse">
      <stop stop-color="#F5F1E8"/>
      <stop offset="1" stop-color="#EFE7D9"/>
    </linearGradient>
    <linearGradient id="btnGrad" x1="0" y1="0" x2="180" y2="56" gradientUnits="userSpaceOnUse">
      <stop stop-color="#6B1F3C"/>
      <stop offset="1" stop-color="#4A1528"/>
    </linearGradient>
    <linearGradient id="pinGrad" x1="0" y1="0" x2="48" y2="56" gradientUnits="userSpaceOnUse">
      <stop stop-color="#6B1F3C"/>
      <stop offset="1" stop-color="#C97450"/>
    </linearGradient>
  </defs>

  <rect width="1280" height="900" fill="url(#hero)"/>
  <text x="48" y="54" fill="#6B1F3C" font-family="Inter, Segoe UI, Arial, sans-serif" font-size="30" font-weight="800">VineBond - Figma Element Kit</text>
  <text x="48" y="82" fill="#8B7355" font-family="Inter, Segoe UI, Arial, sans-serif" font-size="14" font-weight="500">Desktop class: ≥1024px | Mobile class: 320-768px (iOS + Android)</text>

  <rect x="48" y="120" width="1184" height="96" rx="16" fill="#FFFFFF" stroke="#DCCEB5"/>
  <text x="72" y="155" fill="#8B7355" font-family="Inter, Segoe UI, Arial, sans-serif" font-size="13" font-weight="700" letter-spacing="0.06em">TOP BAR MENU</text>
  <text x="72" y="186" fill="#6B1F3C" font-family="Inter, Segoe UI, Arial, sans-serif" font-size="17" font-weight="700">Wineries</text>
  <text x="200" y="186" fill="#6B1F3C" font-family="Inter, Segoe UI, Arial, sans-serif" font-size="17" font-weight="700">Book</text>
  <text x="294" y="186" fill="#4A5D3E" font-family="Inter, Segoe UI, Arial, sans-serif" font-size="17" font-weight="700">VineMap</text>
  <circle cx="396" cy="176" r="16" fill="#F5F1E8" stroke="#8B7355" stroke-width="1.5"/>
  <path d="M396 164C391.6 164 388 167.6 388 172C388 178.5 396 187 396 187C396 187 404 178.5 404 172C404 167.6 400.4 164 396 164Z" fill="#4A5D3E"/>
  <circle cx="396" cy="172" r="3" fill="#D4AF37"/>

  <rect x="48" y="236" width="1184" height="104" rx="16" fill="#FFFFFF" stroke="#DCCEB5"/>
  <text x="72" y="270" fill="#8B7355" font-family="Inter, Segoe UI, Arial, sans-serif" font-size="13" font-weight="700" letter-spacing="0.06em">FILTRATION SECTION</text>
  <rect x="72" y="285" width="320" height="40" rx="10" fill="#FFFFFF" stroke="#8B7355" stroke-width="1.6"/>
  <text x="90" y="309" fill="#6B1F3C" font-family="Inter, Segoe UI, Arial, sans-serif" font-size="14" font-weight="600">Amount of visitors</text>
  <path d="M365 300L373 308L381 300" stroke="#8B7355" stroke-width="2" stroke-linecap="round" stroke-linejoin="round"/>
  <rect x="410" y="285" width="320" height="40" rx="10" fill="#FFFFFF" stroke="#8B7355" stroke-width="1.6"/>
  <text x="428" y="309" fill="#6B1F3C" font-family="Inter, Segoe UI, Arial, sans-serif" font-size="14" font-weight="600">Types of wines</text>
  <path d="M703 300L711 308L719 300" stroke="#8B7355" stroke-width="2" stroke-linecap="round" stroke-linejoin="round"/>

  <rect x="48" y="360" width="580" height="230" rx="16" fill="#FFFFFF" stroke="#DCCEB5"/>
  <text x="72" y="394" fill="#8B7355" font-family="Inter, Segoe UI, Arial, sans-serif" font-size="13" font-weight="700" letter-spacing="0.06em">EXPLORATION & NAVIGATION</text>
  <path d="M124 430C108 430 95 443 95 459C95 482 124 514 124 514C124 514 153 482 153 459C153 443 140 430 124 430Z" fill="url(#pinGrad)"/>
  <circle cx="124" cy="459" r="17" fill="#F5F1E8"/>
  <path d="M114 464C117 459 120 456 124 456C128 456 131 459 134 464" stroke="#4A5D3E" stroke-width="2" stroke-linecap="round"/>
  <text x="176" y="454" fill="#6B1F3C" font-family="Inter, Segoe UI, Arial, sans-serif" font-size="16" font-weight="700">Map Marker</text>
  <text x="176" y="476" fill="#8B7355" font-family="Inter, Segoe UI, Arial, sans-serif" font-size="13">Vineyard destination pin</text>
  <circle cx="124" cy="546" r="18" fill="#E8EFE2"/>
  <path d="M114 546C118 538 122 534 124 534C127 534 130 538 134 546" stroke="#4A5D3E" stroke-width="2" stroke-linecap="round"/>
  <path d="M114 550C118 542 122 538 124 538C127 538 130 542 134 550" stroke="#4A5D3E" stroke-width="2" stroke-linecap="round"/>
  <text x="176" y="552" fill="#6B1F3C" font-family="Inter, Segoe UI, Arial, sans-serif" font-size="16" font-weight="700">Trail Icon</text>

  <rect x="652" y="360" width="580" height="230" rx="16" fill="#FFFFFF" stroke="#DCCEB5"/>
  <text x="676" y="394" fill="#8B7355" font-family="Inter, Segoe UI, Arial, sans-serif" font-size="13" font-weight="700" letter-spacing="0.06em">BOOKING ELEMENTS</text>
  <rect x="676" y="414" width="220" height="156" rx="14" fill="#FCFAF5" stroke="#E2D6BF"/>
  <rect x="676" y="414" width="220" height="72" rx="14" fill="#ECE4D2"/>
  <text x="690" y="504" fill="#6B1F3C" font-family="Inter, Segoe UI, Arial, sans-serif" font-size="15" font-weight="700">Sunset Cellar Tasting</text>
  <text x="690" y="525" fill="#8B7355" font-family="Inter, Segoe UI, Arial, sans-serif" font-size="12">Availability: 6 slots</text>
  <text x="690" y="546" fill="#6B1F3C" font-family="Inter, Segoe UI, Arial, sans-serif" font-size="14" font-weight="700">€95 / person</text>

  <rect x="48" y="610" width="580" height="230" rx="16" fill="#FFFFFF" stroke="#DCCEB5"/>
  <text x="72" y="644" fill="#8B7355" font-family="Inter, Segoe UI, Arial, sans-serif" font-size="13" font-weight="700" letter-spacing="0.06em">WINERY CONTENT HIGHLIGHTS</text>
  <rect x="72" y="664" width="260" height="150" rx="12" fill="#EFE7D9"/>
  <text x="88" y="690" fill="#6B1F3C" font-family="Inter, Segoe UI, Arial, sans-serif" font-size="14" font-weight="700">Vineyard Parcels & Terroir Info</text>
  <rect x="352" y="664" width="250" height="150" rx="12" fill="#E7F0E2"/>
  <text x="368" y="690" fill="#4A5D3E" font-family="Inter, Segoe UI, Arial, sans-serif" font-size="14" font-weight="700">Sustainability Initiatives</text>

  <rect x="652" y="610" width="580" height="230" rx="16" fill="#FFFFFF" stroke="#DCCEB5"/>
  <text x="676" y="644" fill="#8B7355" font-family="Inter, Segoe UI, Arial, sans-serif" font-size="13" font-weight="700" letter-spacing="0.06em">PRIMARY CTA + CUSTOM CURSOR</text>
  <rect x="676" y="670" width="180" height="56" rx="16" fill="url(#btnGrad)" stroke="#D4AF37" stroke-width="3"/>
  <text x="766" y="705" text-anchor="middle" fill="#F5F1E8" font-family="Inter, Segoe UI, Arial, sans-serif" font-size="15" font-weight="700" letter-spacing="0.08em">BOOK NOW</text>
  <path d="M926 676L958 705H943L954 733L944 737L932 709L920 721V680C920 677.8 921.8 676 924 676H926Z" fill="#6B1F3C" stroke="#D4AF37" stroke-width="1.2"/>
  <text x="972" y="706" fill="#8B7355" font-family="Inter, Segoe UI, Arial, sans-serif" font-size="13">Custom cursor (desktop)</text>
</svg>
